<svg width="313" height="335" viewBox="0 0 313 335" fill="none" xmlns="http://www.w3.org/2000/svg">
<path d="M159.121 300.557C159.376 298.919 159.562 296.382 159.67 292.476C159.795 287.978 159.815 281.99 159.815 274.009V237.917L161.934 236.423L192.814 214.645V214.644C201.293 208.611 207.572 204.03 212.152 200.168C216.771 196.274 219.248 193.445 220.518 191.025C222.729 186.811 221.986 182.63 217.113 170.869V170.867C212.937 160.775 211.159 150.085 211.825 140.397C212.486 130.796 215.592 121.75 221.666 115.445V115.444C230.288 106.266 231.776 92.2598 225.082 82.332C222.968 79.4125 221.494 76.1798 220.735 73.0459C220.158 70.6574 219.941 68.074 220.372 65.6328C219.751 65.6553 219.023 65.693 218.172 65.7539C215.38 65.9537 211.656 66.3483 206.691 66.918L206.633 66.9248L206.574 66.9297L185.108 68.8818L182.227 69.1436L180.563 66.7754L169.83 51.4893C167.105 47.6081 165.201 44.9107 163.554 42.9248C161.938 40.9763 160.83 40.0429 159.839 39.4961C158.889 38.9721 157.678 38.5998 155.516 38.4121C153.26 38.2163 150.359 38.2459 146.075 38.3281C141.183 38.4947 136.467 38.3294 132.757 37.8877C130.915 37.6684 129.168 37.3637 127.717 36.9395C126.997 36.7291 126.201 36.4459 125.451 36.0488C124.841 35.7255 123.737 35.0585 122.928 33.8281C121.856 34.0327 120.222 34.4526 117.663 35.208C114.65 36.0975 110.638 37.3608 105.165 39.0762L105.128 39.0879L105.091 39.0986L91.4014 43.1553L92.3926 56.0381L92.3984 56.1133L92.4023 56.1895C92.7191 63.0001 92.7917 68.0652 91.9453 71.6094C91.4829 73.5455 90.6658 75.4317 89.1523 76.9785C87.6592 78.5045 85.8912 79.2858 84.2803 79.752C84.2698 79.7766 84.2566 79.8026 84.2451 79.8311C83.7647 81.0248 83.2287 83.6453 82.8418 89.3262C82.084 100.453 82 120.883 82 158.873V239.361L89.5361 246.629C94.1272 250.908 107.491 261.11 119.675 268.806L119.7 268.822L119.726 268.838C125.904 272.846 132.22 277.501 137.451 281.694C142.578 285.804 146.986 289.725 149.118 292.245L149.177 292.314L149.232 292.386C150.734 294.297 152.789 296.292 154.871 297.907C156.687 299.316 158.187 300.175 159.121 300.557Z" stroke="white" stroke-width="10"/>
</svg>
