<svg width="270" height="254" viewBox="0 0 270 254" fill="none" xmlns="http://www.w3.org/2000/svg">
<path d="M144.719 184C147.527 184 149.702 183.577 150.983 183.07C151.089 183.029 151.182 182.989 151.263 182.952C151.384 182.4 151.55 181.923 151.698 181.554C151.992 180.819 152.372 180.108 152.762 179.46C153.542 178.163 154.581 176.757 155.725 175.35C158.029 172.516 161.083 169.283 164.237 166.251C167.392 163.218 170.761 160.276 173.728 158.057C175.202 156.953 176.673 155.956 178.029 155.211C178.645 154.873 179.488 154.441 180.454 154.121C180.589 153.822 180.747 153.444 180.918 152.975C181.678 150.894 182.461 147.821 182.992 144.282L183.008 144.176L183.028 144.069L185.683 130.422L187.115 123.051L193.364 127.216L194.065 127.684C189.714 120.243 184.128 110.288 179.729 101.5C176.19 94.9827 172.926 89.7495 170.45 86.4922C170.097 86.0277 169.777 85.6289 169.492 85.2871C168.877 85.5839 168.273 85.8095 167.729 85.9854C165.835 86.5967 163.635 86.9216 161.363 87.0752C156.791 87.3844 151.086 87.0494 145.052 86.2432C133.029 84.6368 118.795 81.0359 108.164 76.0361C99.4596 72.1678 95.5944 70.6177 92.2012 70.1221C88.961 69.6488 85.9355 70.1022 78.5781 71.457C76.426 71.9062 75.158 72.4116 74.4834 72.8018C74.6091 73.0419 74.8081 73.3736 75.127 73.8027C76.0472 75.0412 77.6133 76.6351 80.0049 78.585C81.9118 80.1287 83.7273 81.6082 85.0498 83.0537C86.4653 84.6008 87.7799 86.5955 88.002 89.2598C88.2069 91.7207 87.3976 93.9727 86.5107 95.8809C85.6073 97.8247 84.2616 100.135 82.6885 102.818L82.6533 102.879L82.6152 102.939L81.8516 104.144C78.1492 109.893 72.6046 117.397 68.5098 122.051L67.6553 123.003C65.772 125.085 64.7662 126.245 64.2148 127.121C64.163 127.204 64.1216 127.273 64.0889 127.331C64.2462 127.612 64.6142 128.179 65.4463 129.134C66.7636 130.645 68.7264 132.571 71.6152 135.363L71.6455 135.393L71.6748 135.423C77.4125 141.161 90.6821 148.784 101.565 152.412C114.287 156.653 125.346 161.522 132.661 165.831C136.211 167.922 139.338 170.143 141.224 172.369C142.106 173.41 143.34 175.165 143.447 177.435C143.581 180.268 141.961 182.299 140.146 183.394L140.147 183.395C140.058 183.45 139.973 183.505 139.891 183.558C141.089 183.819 142.693 184 144.719 184ZM183.008 153.672C182.914 153.672 182.822 153.675 182.732 153.681C182.824 153.677 182.916 153.672 183.008 153.672Z" stroke="white" stroke-width="10"/>
</svg>
