<svg width="539" height="451" viewBox="0 0 539 451" fill="none" xmlns="http://www.w3.org/2000/svg">
<path d="M93.4971 216.425C99.7341 219.069 105.75 219.712 109.128 218.554L109.147 218.547L109.168 218.54C112.02 217.589 116.291 217.058 120.603 216.835C125.018 216.607 129.977 216.679 134.468 217.139C141.594 217.72 144.794 217.743 148.475 216.507C152.484 215.16 157.286 212.243 167.042 205.739C172.732 201.85 178.921 198.196 184.31 195.39C189.382 192.748 194.331 190.546 197.497 189.898V189.896C199.38 189.462 201.346 189.062 203.158 189.055C205.168 189.047 207.334 189.519 209.242 191.109C210.951 192.533 211.949 194.454 212.659 196.187C213.387 197.964 214.055 200.18 214.776 202.706L214.785 202.734L214.793 202.764C215.509 205.389 216.178 208.068 216.726 210.462C216.837 209.447 216.898 208.38 216.898 207.28C216.898 202.593 218.755 195.586 220.72 190.101C221.731 187.277 222.876 184.56 224.012 182.47C224.567 181.448 225.223 180.383 225.972 179.503C226.345 179.065 226.867 178.521 227.543 178.054C228.185 177.61 229.356 176.966 230.919 176.966C231.88 176.966 232.931 177.205 233.549 177.354C234.339 177.543 235.255 177.799 236.211 178.086C238.131 178.662 240.397 179.418 242.493 180.167L242.521 180.177C243.549 180.551 244.483 180.834 245.315 181.042C243.255 176.832 244.231 172.16 246.544 168.961C248.897 165.707 253.116 163.311 257.851 164.086C258.207 162.332 259.01 160.729 260.271 159.438C261.996 157.67 264.246 156.824 266.418 156.714C270.71 156.496 275.053 159.077 276.863 163.779L276.864 163.778C277.04 164.209 277.714 165.175 279.315 166.421C280.824 167.594 282.783 168.723 284.887 169.618C286.999 170.517 289.068 171.099 290.766 171.307C292.495 171.519 293.211 171.27 293.292 171.24C294.766 170.354 295.344 168.938 295.254 167.66C295.166 166.422 294.48 165.36 293.06 164.887C289.986 163.911 286.982 162.151 285.458 158.379C284.189 155.237 284.284 151.36 284.716 147.166L285.584 136.462L285.971 131.686L290.76 131.869L320.999 133.033L321 133.032C329.468 133.324 337.372 133.69 343.322 134.058C345.024 134.163 346.578 134.271 347.947 134.376C346.915 133.605 345.885 132.773 344.887 131.899C342.861 130.127 340.595 128.625 338.669 127.662C337.703 127.179 336.933 126.887 336.404 126.745C336.325 126.724 336.257 126.709 336.201 126.696C333.351 127.49 330.98 128.138 329.101 128.539C327.326 128.918 325.068 129.309 323.011 128.817C321.788 128.525 320.518 127.901 319.488 126.762C318.507 125.676 318.052 124.46 317.825 123.497C317.439 121.86 317.508 119.938 317.572 118.458C317.568 117.625 317.5 116.911 317.408 116.357C317.067 116.196 316.745 116.024 316.451 115.854C315.502 115.306 314.493 114.594 313.509 113.83C311.521 112.289 309.253 110.248 307.108 108.104C304.255 105.25 301.987 102.494 300.864 99.7988C300.273 98.3789 299.88 96.7009 300.124 94.8975C300.379 93.0098 301.268 91.4519 302.453 90.2666C303.309 89.4104 303.733 88.5652 303.923 87.9453C301.836 87.6403 299.855 86.6053 298.391 85.6172C296.528 84.36 294.616 82.5832 293.184 80.4102C292.418 79.4177 290.945 78.2858 288.662 77.2939C286.377 76.3016 283.609 75.593 280.743 75.2764C277.874 74.9593 275.09 75.0548 272.776 75.5312C270.491 76.002 269.055 76.7612 268.299 77.4658C267.45 78.4375 266.72 79.6671 266.298 80.792C266.083 81.3651 265.99 81.7997 265.962 82.0664C265.96 82.0873 265.959 82.1062 265.958 82.123C266.941 84.7864 267.115 87.7039 265.858 90.4668C264.59 93.2565 262.226 95.0876 259.742 96.2549C254.92 98.5211 247.977 99.0992 240.148 98.498C230.68 97.7915 222.054 98.0885 215.935 99.0352C212.831 99.5153 210.654 100.121 209.389 100.69C209.338 100.713 209.291 100.739 209.246 100.76C208.831 102.632 207.812 104.16 206.907 105.223C205.651 106.698 204.048 107.963 202.412 108.954C200.764 109.952 198.892 110.788 196.987 111.284C195.227 111.743 193.065 112.009 190.92 111.505C190.855 111.495 190.691 111.471 190.391 111.436C189.991 111.388 189.457 111.333 188.796 111.269C187.477 111.141 185.719 110.988 183.646 110.826C179.504 110.502 174.164 110.141 168.68 109.853L168.58 109.847C153.115 108.722 146.685 109.859 138.017 113.536C127.436 118.025 119.598 118.893 103.203 117.999L103.128 117.995L103.054 117.988L86.3896 116.581L75.6582 150.871L75.6514 150.895L75.6436 150.918L74.4121 154.745C71.5845 163.602 69.0807 171.888 67.2158 178.336C66.1494 182.023 65.2978 185.089 64.7168 187.307C64.4252 188.42 64.21 189.287 64.0713 189.898C64.0099 190.169 63.9706 190.36 63.9473 190.483C63.8305 193.037 62.5195 195.043 60.9834 196.426C59.4379 197.817 57.4799 198.776 55.4932 199.46C51.4945 200.837 46.1541 201.515 40.0439 201.515C37.9323 201.515 35.6711 201.873 33.8252 202.45C32.9431 202.726 32.2477 203.026 31.7529 203.297C31.9052 203.425 32.0793 203.567 32.2783 203.722C33.326 204.538 34.8065 205.539 36.8613 206.814L36.8604 206.815C40.5657 209.095 42.8049 210.089 44.2002 210.404C44.8934 210.561 45.1402 210.513 45.2539 210.446C46.7258 209.192 49.2476 207.675 51.833 206.291C54.2162 205.015 56.9819 203.68 59.7148 202.534L60.8828 202.056C63.426 200.996 65.5975 200.104 67.3799 199.521C69.0779 198.967 71.1478 198.433 73.2529 198.728C75.7969 199.084 77.5548 200.491 78.7617 202.092C79.778 203.44 80.5734 205.16 81.2578 206.666L81.2695 206.691L81.2803 206.717C82.6993 209.933 87.2445 213.774 93.4971 216.425ZM467.492 374.965C477.338 377.356 486.294 378.29 493.178 377.923C496.625 377.739 499.386 377.237 501.418 376.532C503.501 375.81 504.411 375.02 504.749 374.556L504.801 374.484L504.855 374.415C505.27 373.886 505.63 373.402 505.944 372.963C505.545 372.883 505.139 372.779 504.738 372.635C503.166 372.068 501.374 370.788 500.684 368.421C500.122 366.494 500.579 364.709 500.944 363.633C501.341 362.463 501.952 361.234 502.643 359.999C503.113 359.115 503.261 358.65 503.307 358.421C503.332 358.291 503.324 358.278 503.304 358.216C503.257 358.068 503.081 357.652 502.462 356.864C501.841 356.075 500.911 355.083 499.53 353.771L499.483 353.727L499.438 353.681C497.303 351.545 495.2 348.955 493.529 346.429C491.959 344.054 490.388 341.17 489.907 338.528L489.883 338.392L489.865 338.254C489.819 337.883 489.757 337.695 489.728 337.619C489.675 337.58 489.566 337.509 489.363 337.416C488.131 336.852 485.656 336.371 480.432 335.923C476.956 335.633 473.536 335.336 470.937 335.035C469.651 334.886 468.453 334.724 467.511 334.541C467.06 334.454 466.506 334.331 465.978 334.153C465.723 334.068 465.306 333.915 464.855 333.661C464.683 333.564 464.194 333.288 463.678 332.77C463.077 332.189 462.725 331.565 462.533 331.136C462.23 330.46 462.127 329.852 462.084 329.503C461.997 328.797 462.041 328.145 462.081 327.732C462.168 326.84 462.374 325.812 462.608 324.813C463.092 322.759 463.869 320.13 464.769 317.431L464.783 317.389L464.798 317.348C466.268 313.182 466.013 310.134 465.269 308.453C464.66 307.08 463.628 306.263 461.656 306.263C457.534 306.263 452.972 303.536 452.608 298.432C452.584 298.387 452.557 298.334 452.522 298.275C452.233 297.779 451.727 297.061 450.969 296.14C449.464 294.314 447.298 292.086 444.823 289.82C442.36 287.566 439.688 285.361 437.217 283.569C434.663 281.718 432.615 280.521 431.347 280.033L431.237 279.99C429.504 279.276 428.169 277.93 427.296 276.927C426.312 275.796 425.357 274.436 424.472 273.018C422.693 270.169 420.941 266.678 419.517 263.311C418.11 259.984 416.906 256.499 416.365 253.681C416.114 252.37 415.892 250.662 416.184 249.053C416.333 248.227 416.7 246.949 417.722 245.815C418.897 244.512 420.497 243.889 422.085 243.889C423.025 243.889 423.798 244.162 423.917 244.201C424.221 244.302 424.514 244.419 424.759 244.522C425.259 244.735 425.849 245.015 426.48 245.328C427.758 245.962 429.443 246.853 431.396 247.921C435.313 250.065 440.458 253.005 445.881 256.229C449.871 258.602 453.649 260.808 456.857 262.638C456.677 261.983 456.491 261.302 456.294 260.596C454.088 252.675 450.897 241.726 447.267 229.672C440.664 208.397 437.308 197.904 434.359 191.872C432.959 189.006 431.776 187.429 430.555 186.262C429.427 185.183 428.097 184.284 426.027 183.052L425.094 182.502C420.649 179.921 417.005 177.543 414.691 174.178C412.237 170.607 411.71 166.605 411.559 162.056L411.557 161.973V161.889C411.557 156.438 410.726 148.887 410.156 144.889C409.619 141.915 409.724 137.916 410.095 133.876C410.487 129.606 411.226 124.798 412.163 120.133C413.099 115.47 414.253 110.854 415.496 106.975C416.663 103.333 418.124 99.6231 419.926 97.3711L420.036 97.2334L420.156 97.1035C420.159 97.1003 420.185 97.0709 420.235 97.0068C420.291 96.9359 420.364 96.8377 420.454 96.708C420.637 96.4455 420.861 96.0985 421.123 95.6621C421.649 94.7872 422.266 93.6619 422.945 92.3369C424.301 89.6913 425.818 86.4208 427.243 83.125C428.464 80.3029 429.594 77.5106 430.482 75.1289C426.209 76.0025 419.485 77.0053 414.461 77.5342L414.426 77.5381L413.162 77.6719C400.223 79.1529 390.891 83.6176 378.52 94.375L378.494 94.3975L378.469 94.4189L377.413 95.3164C372.355 99.64 370.514 101.589 369.527 103.742C368.449 106.096 368.169 109.162 368.018 117.149C368.014 121.868 367.635 126.371 366.99 129.878C366.671 131.615 366.253 133.292 365.699 134.683C365.425 135.37 365.049 136.167 364.518 136.907C364.072 137.528 363.18 138.585 361.702 139.171L361.398 139.281L361.019 139.395C360.352 139.57 359.698 139.623 359.091 139.607C359.254 139.975 359.402 140.341 359.531 140.699C360.093 142.253 360.54 144.119 360.902 146.083C361.633 150.043 362.132 155.019 362.375 160.086C362.619 165.167 362.612 170.485 362.292 175.148C361.99 179.547 361.372 183.988 360.094 187.023H360.096C359.387 188.795 358.914 190.104 358.625 191.107C358.477 191.622 358.397 191.991 358.354 192.245C358.377 192.261 358.402 192.279 358.429 192.296L358.427 192.298C360.264 193.447 361.216 195.218 361.724 196.502C362.28 197.908 362.597 199.469 362.78 200.979C363.15 204.02 363.069 207.637 362.679 211.206C362.286 214.8 361.556 218.561 360.522 221.921C359.53 225.148 358.104 228.514 356.048 230.901H356.049C356.112 230.828 355.703 231.418 355.454 233.132C355.238 234.621 355.233 236.356 355.444 237.904C355.99 240.644 355.875 243.474 355.306 245.939C354.753 248.333 353.599 251.118 351.433 252.976L351.31 253.082L351.179 253.18C350.652 253.575 350.047 254.265 349.579 255.061C349.356 255.44 349.212 255.762 349.135 255.983C349.121 256.022 349.113 256.055 349.105 256.08V256.285L349.037 256.693C348.887 257.593 348.544 258.393 348.322 258.873C348.058 259.443 347.733 260.045 347.383 260.646C346.678 261.854 345.742 263.277 344.649 264.811C342.471 267.868 339.526 271.567 336.209 275.191L327.6 285.125L331.451 290.027C334.918 294.361 341.914 303.105 346.638 309.594C350.114 314.086 355.714 318.864 361.535 322.527C364.427 324.348 367.264 325.823 369.788 326.828C372.388 327.864 374.329 328.27 375.53 328.27C378.934 328.27 382.408 330.329 383.594 333.666C387.604 333.241 391.327 333.393 394.343 334.367C396.062 334.923 397.83 335.835 399.21 337.336C400.478 338.715 401.252 340.419 401.436 342.289C401.631 342.481 401.953 342.758 402.451 343.102C403.914 344.111 406.192 345.227 409.027 346.233C414.763 348.27 421.548 349.434 426.23 348.954L426.286 348.948L426.342 348.943C428.165 348.798 429.871 348.698 431.311 348.771C432.584 348.835 434.659 349.056 436.408 350.401C438.577 352.07 439.043 354.43 439.023 356.113C439.007 357.52 438.66 358.996 438.314 360.265C438.597 360.273 438.909 360.275 439.252 360.275C441.52 360.275 443.932 360.606 445.867 361.504C446.78 361.928 448.216 362.766 449.143 364.363C450.001 365.845 450.137 367.478 449.721 368.953C449.91 369.073 450.139 369.211 450.415 369.362C453.316 370.947 458.774 372.785 467.491 374.966L467.492 374.965Z" stroke="white" stroke-width="10"/>
</svg>
